<svg xmlns="http://www.w3.org/2000/svg" viewBox="0 0 300 120" role="img" aria-label="Olivar">
  <title>Olivar</title>

  
  <g>
    <circle cx="54" cy="64" r="33.5" fill="none" stroke="#E8362B" stroke-width="17"></circle>
    <g fill="#ffffff">
      <g transform="rotate(45 54 64)"><rect x="45" y="20" width="18" height="23" rx="6"></rect></g>
      <g transform="rotate(135 54 64)"><rect x="45" y="20" width="18" height="23" rx="6"></rect></g>
      <g transform="rotate(225 54 64)"><rect x="45" y="20" width="18" height="23" rx="6"></rect></g>
      <g transform="rotate(315 54 64)"><rect x="45" y="20" width="18" height="23" rx="6"></rect></g>
    </g>
  </g>

  
  <g fill="none" stroke-linecap="round" stroke-linejoin="round" stroke-width="15">
    <path d="M119 26 V95" stroke="#1E73D6"></path>
    <path d="M141 45 V95" stroke="#FBBE1E"></path>
    <path d="M158 45 L173 94 L188 45" stroke="#E8362B"></path>
    <circle cx="214" cy="71" r="21" stroke="#1E73D6"></circle>
    <path d="M236 47 V95" stroke="#1E73D6"></path>
    <path d="M259 45 V95" stroke="#E8362B"></path>
    <path d="M259 56 Q259 46 275 48" stroke="#E8362B"></path>
  </g>

  
  <g transform="translate(126,12.5) scale(.30)">
    <rect x="45" y="13" width="5" height="54" rx="2.5" fill="#122A4B"></rect>
    <path d="M45.5 12 Q31 10.5 24.5 16.5 Q31 22.5 45.5 21 Z" fill="#FBBE1E"></path>
    <circle cx="47.5" cy="12" r="3.2" fill="#FBBE1E"></circle>
    <path d="M53 19 C 74 30 78 52 71 62 a3 3 0 0 1 -2 1 H53 a2 2 0 0 1 -2 -2 Z" fill="#ffffff"></path>
    <rect x="60" y="26" width="5.5" height="30" rx="2.7" fill="#E8362B"></rect>
    <rect x="52" y="39" width="21" height="5.5" rx="2.7" fill="#E8362B"></rect>
    <path d="M18 63 h58 a4 4 0 0 1 3.8 5.2 l-3.4 11 a8 8 0 0 1 -7.6 5.5 H25.2 a8 8 0 0 1 -7.6 -5.5 l-3.4 -11 A4 4 0 0 1 18 63 Z" fill="#E8362B"></path>
    <rect x="24" y="70" width="52" height="5" rx="2.5" fill="#ffffff" opacity=".85"></rect>
  </g>
</svg>